HIERARCHY
ROOT SimulationBone
{
	OFFSET 0.000000 0.000000 0.000000
	CHANNELS 6 Xposition Yposition Zposition Zrotation Yrotation Xrotation 
	JOINT Hips
	{
		OFFSET 0.000000 0.000000 0.000000
		CHANNELS 6 Xposition Yposition Zposition Zrotation Yrotation Xrotation 
		JOINT RightUpLeg
		{
			OFFSET 0.103459 1.857827 10.548504
			CHANNELS 3 Zrotation Yrotation Xrotation
			JOINT RightLeg
			{
				OFFSET 43.500008 0.000000 0.000004
				CHANNELS 3 Zrotation Yrotation Xrotation
				JOINT RightFoot
				{
					OFFSET 42.372192 0.000011 0.000000
					CHANNELS 3 Zrotation Yrotation Xrotation
					JOINT RightToe
					{
						OFFSET 17.299973 -0.000013 -0.000010
						CHANNELS 3 Zrotation Yrotation Xrotation
						End Site
						{
							OFFSET 0.000000 0.000000 0.000000
						}
					}
				}
			}
		}
		JOINT LeftUpLeg
		{
			OFFSET 0.103454 1.857830 -10.548500
			CHANNELS 3 Zrotation Yrotation Xrotation
			JOINT LeftLeg
			{
				OFFSET 43.500038 -0.000038 0.000004
				CHANNELS 3 Zrotation Yrotation Xrotation
				JOINT LeftFoot
				{
					OFFSET 42.372253 0.000019 0.000024
					CHANNELS 3 Zrotation Yrotation Xrotation
					JOINT LeftToe
					{
						OFFSET 17.299988 -0.000007 0.000004
						CHANNELS 3 Zrotation Yrotation Xrotation
						End Site
						{
							OFFSET 0.000000 0.000000 0.000000
						}
					}
				}
			}
		}
		JOINT Spine
		{
			OFFSET 6.901963 -2.603744 0.000004
			CHANNELS 3 Zrotation Yrotation Xrotation
			JOINT Spine1
			{
				OFFSET 12.588104 0.000008 -0.000010
				CHANNELS 3 Zrotation Yrotation Xrotation
				JOINT Spine2
				{
					OFFSET 12.343202 -0.000005 0.000010
					CHANNELS 3 Zrotation Yrotation Xrotation
					JOINT Neck
					{
						OFFSET 25.832897 0.000000 0.000001
						CHANNELS 3 Zrotation Yrotation Xrotation
						JOINT Head
						{
							OFFSET 11.766611 -0.000006 -0.000000
							CHANNELS 3 Zrotation Yrotation Xrotation
							End Site
							{
								OFFSET 0.000000 0.000000 0.000000
							}
						}
					}
					JOINT RightShoulder
					{
						OFFSET 19.745899 -1.480366 6.000108
						CHANNELS 3 Zrotation Yrotation Xrotation
						JOINT RightArm
						{
							OFFSET 11.284111 -0.000018 -0.000015
							CHANNELS 3 Zrotation Yrotation Xrotation
							JOINT RightForeArm
							{
								OFFSET 33.000050 -0.000005 0.000028
								CHANNELS 3 Zrotation Yrotation Xrotation
								JOINT RightHand
								{
									OFFSET 25.200012 0.000000 0.000002
									CHANNELS 3 Zrotation Yrotation Xrotation
									End Site
									{
										OFFSET 0.000000 0.000000 0.000000
									}
								}
							}
						}
					}
					JOINT LeftShoulder
					{
						OFFSET 19.746111 -1.480335 -6.000074
						CHANNELS 3 Zrotation Yrotation Xrotation
						JOINT LeftArm
						{
							OFFSET 11.284151 0.000036 0.000001
							CHANNELS 3 Zrotation Yrotation Xrotation
							JOINT LeftForeArm
							{
								OFFSET 33.000092 -0.000035 0.000022
								CHANNELS 3 Zrotation Yrotation Xrotation
								JOINT LeftHand
								{
									OFFSET 25.199768 0.000178 0.000417
									CHANNELS 3 Zrotation Yrotation Xrotation
									End Site
									{
										OFFSET 0.000000 0.000000 0.000000
									}
								}
							}
						}
					}
				}
			}
		}
	}
}
MOTION
Frames: 11
Frame Time: 0.016667
-294.726966 0.000000 92.530176 0.000000 81.359679 0.000000 -1.080230 88.278923 -1.339452 89.119047 -3.751636 -178.500991 -170.569358 7.267593 179.884520 -15.523903 -5.498135 -4.577551 81.340018 4.156492 3.615996 21.454560 0.003105 0.000020 149.582726 2.329104 -174.954681 -12.161259 -0.948520 -2.687532 69.766113 3.072855 3.349038 21.454557 -0.003075 0.000003 6.576022 -1.136105 -2.288238 3.184280 -2.209810 -4.607225 2.867019 -2.237713 -4.593836 -7.592962 -8.435172 4.723035 22.981785 11.832730 2.585649 -166.599309 -74.174252 -15.154338 -19.607194 49.669941 29.011460 -39.024418 -14.819311 1.448501 2.823477 -10.853092 8.364100 171.901339 79.145719 -6.684478 -9.616177 -61.370723 -40.567329 -41.929591 8.823030 -1.102015 -2.872448 6.815723 -18.673737 
-294.593720 0.000000 90.483850 0.000000 81.751113 0.000000 -1.354772 87.828224 -1.371101 88.803895 -4.030594 -178.647158 -169.416281 7.413767 -179.636549 -14.958882 -5.764400 -4.397343 81.557514 4.031297 3.627054 21.454558 0.003116 0.000018 148.887453 2.598744 -176.022586 -9.419705 -0.019885 -2.670901 70.815285 3.549909 5.013079 21.454553 -0.003075 0.000004 6.554123 -1.090084 -2.354435 3.139763 -2.116932 -4.737895 2.822584 -2.145625 -4.725058 -8.427359 -7.737641 4.516985 22.523436 11.495275 2.441865 -166.766555 -74.205975 -14.982867 -19.584260 49.272188 29.517033 -41.198868 -15.197139 1.529396 2.247123 -11.156366 8.556123 174.023467 78.719221 -4.539241 -9.049073 -60.476526 -41.795008 -42.783492 8.734145 -1.119363 -3.097864 7.690894 -18.697442 
-294.464389 0.000000 88.448586 0.000000 82.133180 0.000000 -1.656221 87.390549 -1.394341 88.570922 -4.151102 -178.881363 -168.268486 7.393801 -179.253657 -14.484408 -6.037889 -4.192346 81.841498 3.890617 3.648574 21.454557 0.003113 0.000018 148.354112 2.548401 -176.947375 -7.732817 0.386435 -2.764515 71.416600 4.104314 6.580849 21.454551 -0.003078 0.000003 6.566939 -1.026108 -2.378918 3.163069 -1.987860 -4.785252 2.845956 -2.016830 -4.773197 -9.387814 -7.007284 4.304315 22.051691 11.212380 2.302604 -166.910711 -74.163884 -14.835286 -19.884008 48.811102 29.752586 -43.027018 -15.465532 1.598946 1.590234 -11.401154 8.831771 175.921043 78.121035 -2.623471 -8.751801 -59.589410 -42.614665 -43.197544 8.638422 -1.124128 -3.306591 8.592206 -18.184726 
-294.339005 0.000000 86.425103 0.000000 82.505664 0.000000 -1.935077 86.962481 -1.403808 88.421277 -4.139038 -179.171209 -167.146387 7.238306 -179.012872 -14.206191 -6.278196 -3.946231 82.090892 3.715832 3.637851 21.454555 0.003105 0.000018 147.853159 2.225272 -177.670678 -7.296126 0.422942 -3.031398 71.316941 4.577764 7.391618 21.454549 -0.003083 0.000002 6.603080 -0.941612 -2.374969 3.231643 -1.817564 -4.775492 2.914579 -1.846466 -4.764469 -10.389947 -6.302835 4.109048 21.579059 10.997937 2.184859 -167.031433 -74.079762 -14.711828 -20.383422 48.403703 29.773304 -44.446012 -15.660540 1.653111 0.881823 -11.552466 9.205020 177.456674 77.425864 -1.074851 -8.670971 -58.786240 -43.064034 -43.069884 8.545957 -1.114298 -3.481209 9.394105 -17.386184 
-294.217600 0.000000 84.414120 0.000000 82.868358 0.000000 -2.141973 86.540604 -1.392852 88.356250 -4.019776 -179.483542 -166.068810 6.979606 -178.958688 -14.229812 -6.443848 -3.641629 82.204946 3.488608 3.552679 21.454555 0.003101 0.000018 147.250517 1.673493 -178.134844 -8.302544 0.231381 -3.506914 70.249314 4.797866 6.782293 21.454551 -0.003089 0.000001 6.651154 -0.834060 -2.355872 3.322912 -1.601131 -4.734821 3.005878 -1.629787 -4.725104 -11.348770 -5.681608 3.959222 21.117864 10.866174 2.105256 -167.129810 -73.985384 -14.611295 -20.964940 48.165571 29.627748 -45.393481 -15.817943 1.691002 0.151946 -11.575065 9.688418 178.571730 76.710300 0.047689 -8.758427 -58.141471 -43.175264 -42.298701 8.466428 -1.088140 -3.615541 9.968598 -16.553129 
-294.100204 0.000000 82.416356 0.000000 83.221058 0.000000 -2.239524 86.129047 -1.354131 88.373160 -3.794246 -179.794834 -165.040461 6.633337 -179.114191 -14.604040 -6.493765 -3.277526 82.084586 3.202872 3.358562 21.454556 0.003105 0.000017 146.488244 0.925687 -178.312038 -10.714989 -0.091061 -4.150640 68.090639 4.599344 4.503632 21.454555 -0.003094 0.000001 6.700564 -0.695785 -2.331826 3.415603 -1.323424 -4.683180 3.098582 -1.351782 -4.675130 -12.187389 -5.197596 3.883490 20.683677 10.816842 2.078010 -167.195452 -73.901002 -14.544301 -21.527875 48.202253 29.346728 -45.821764 -15.966714 1.713437 -0.560790 -11.448028 10.294378 179.265084 76.046624 0.742946 -8.978328 -57.713873 -42.967103 -40.806331 8.403782 -1.044388 -3.703966 10.223680 -15.927394 
-293.986849 0.000000 80.432531 0.000000 83.563567 0.000000 -2.237813 85.762131 -1.281784 88.450682 -3.366824 179.878191 -164.014999 6.143003 -179.423674 -15.151619 -6.395444 -2.918856 81.635561 2.901808 3.049161 21.454558 0.003110 0.000017 145.829182 -0.029305 -178.302853 -13.573779 -0.548330 -4.679985 65.267852 4.135391 1.924955 21.454557 -0.003094 0.000001 6.744005 -0.498626 -2.300631 3.494029 -0.928522 -4.615199 3.177012 -0.956487 -4.609523 -12.862977 -4.896296 3.900677 20.305384 10.790776 2.108999 -167.169098 -73.800832 -14.571682 -22.014474 48.579296 28.917739 -45.740980 -16.109846 1.720665 -1.188422 -11.208313 11.040051 179.599578 75.488503 1.074601 -9.316940 -57.504918 -42.432215 -38.611741 8.340922 -0.984583 -3.706422 10.216457 -15.708371 
-293.877566 0.000000 78.463364 0.000000 83.895692 0.000000 -2.158545 85.474832 -1.174626 88.561057 -2.654094 179.514189 -162.973577 5.464184 -179.824150 -15.717426 -6.126551 -2.633481 80.768880 2.630539 2.630892 21.454560 0.003107 0.000019 145.521763 -1.186478 -178.232551 -15.981307 -1.103260 -4.842957 62.368641 3.736937 0.472830 21.454553 -0.003089 0.000002 6.776199 -0.218268 -2.259067 3.546874 -0.368120 -4.523683 3.229847 -0.395542 -4.521389 -13.353337 -4.809198 4.022927 20.016635 10.715104 2.202134 -166.986792 -73.656050 -14.759150 -22.385736 49.341096 28.314844 -45.184888 -16.236646 1.712577 -1.657643 -10.921452 11.919963 179.628416 75.077660 1.096709 -9.769917 -57.495731 -41.554426 -35.782835 8.256425 -0.912180 -3.569506 10.059197 -16.025442 
-293.772387 0.000000 76.509573 0.000000 84.217248 0.000000 -2.022137 85.274567 -1.046805 88.678868 -1.716733 179.111761 -162.059147 4.678298 179.710828 -16.461919 -5.684154 -2.432111 79.412949 2.399177 2.131703 21.454562 0.003104 0.000021 145.430122 -2.423203 -178.165198 -18.193203 -1.617903 -4.715018 60.217440 3.595983 0.275609 21.454550 -0.003085 0.000003 6.796419 0.133744 -2.212260 3.573574 0.334847 -4.419404 3.256502 0.308046 -4.421350 -13.683583 -4.918980 4.245362 19.855952 10.521265 2.358758 -166.610593 -73.471774 -15.145774 -22.626473 50.486442 27.506434 -44.224115 -16.308538 1.688754 -1.902460 -10.706151 12.827890 179.362953 74.830790 0.820592 -10.330657 -57.645661 -40.324620 -32.488975 8.133641 -0.832471 -3.240347 9.934798 -16.770503 
-293.671343 0.000000 74.571880 0.000000 84.528052 0.000000 -1.851093 85.157651 -0.915245 88.781594 -0.656317 178.686338 -161.451189 3.873923 179.207685 -17.626359 -5.089078 -2.304707 77.511927 2.178198 1.498088 21.454562 0.003108 0.000020 145.370706 -3.603804 -178.110161 -20.620524 -1.974510 -4.448146 59.485616 3.736765 0.979141 21.454550 -0.003087 0.000001 6.805315 0.533620 -2.168531 3.576629 1.133142 -4.319973 3.259455 1.106925 -4.326723 -13.892202 -5.186493 4.551403 19.857012 10.159911 2.575025 -166.044489 -73.273653 -15.727598 -22.728966 51.986278 26.484355 -42.951714 -16.285031 1.650691 -1.863837 -10.681198 13.619906 178.813486 74.749153 0.256703 -10.990863 -57.908923 -38.749204 -28.939067 7.963601 -0.752656 -2.673142 10.015699 -17.744044 
-293.574466 0.000000 72.651001 0.000000 84.827927 0.000000 -1.678679 85.103561 -0.791743 88.850917 0.406788 178.303306 -161.311036 3.050906 178.705370 -19.458881 -4.442050 -2.204440 75.059127 1.804203 0.335438 21.454560 0.003113 0.000019 145.346629 -4.660285 -177.944391 -23.161153 -2.182312 -4.177076 59.909050 3.811364 1.588279 21.454553 -0.003090 -0.000001 6.804686 0.944405 -2.140485 3.560829 1.953369 -4.251914 3.243497 1.927543 -4.263601 -14.021931 -5.532320 4.899595 20.031381 9.655582 2.830322 -165.420009 -73.138085 -16.369348 -22.676200 53.743441 25.348159 -41.511901 -16.146420 1.601224 -1.487703 -10.902027 14.095152 178.069288 74.800239 -0.503919 -11.732006 -58.243097 -36.894673 -25.404248 7.761899 -0.680339 -1.834437 10.350671 -18.619145 
